<svg width="52" height="50" viewBox="0 0 52 50" fill="none" xmlns="http://www.w3.org/2000/svg">
<path d="M49.2496 21.0615L46.8959 31.0982C44.8786 39.7663 40.8918 43.272 33.3987 42.5516C32.1978 42.4556 30.9009 42.2395 29.508 41.9033L25.4732 40.9429C15.4583 38.5657 12.3601 33.6194 14.7138 23.5827L17.0674 13.5219C17.5477 11.481 18.1241 9.70414 18.8446 8.23945C21.6546 2.42871 26.4339 0.867969 34.4554 2.76487L38.4661 3.70131C48.5291 6.05442 51.6032 11.0248 49.2496 21.0615Z" fill="#FFC2AF" stroke="#FACC15" stroke-width="3" stroke-linecap="round" stroke-linejoin="round"/>
<path opacity="0.4" d="M33.3991 42.552C31.9101 43.5604 30.0368 44.4008 27.7552 45.1452L23.9606 46.3938C14.4262 49.4672 9.40672 46.898 6.30859 37.3655L3.23448 27.881C0.160367 18.3485 2.70612 13.3061 12.2407 10.2327L16.0353 8.9841C17.02 8.67195 17.9566 8.40783 18.8452 8.23975C18.1247 9.70444 17.5483 11.4813 17.068 13.5222L14.7144 23.583C12.3608 33.6197 15.4589 38.5661 25.4737 40.9432L29.5084 41.9036C30.9014 42.2398 32.1983 42.4559 33.3991 42.552Z" stroke="#C0564A" stroke-width="3" stroke-linecap="round" stroke-linejoin="round"/>
</svg>
